<?xml version="1.0" encoding="UTF-8"?>
<svg version="1.1" viewBox="0 0 1000 351" xmlns="http://www.w3.org/2000/svg">
<g transform="translate(-.60603 -.17066)">
<svg width="1e3" height="351" data-background-color="#ffffff" viewBox="0 0 396 139" xmlns="http://www.w3.org/2000/svg" xmlns:xlink="http://www.w3.org/1999/xlink">
<g transform="translate(.23999 .067584)">
<svg width="395.52" height="138.86" viewBox="0 0 395.51999999999987 138.86483164719755">
<svg width="395.52" height="138.86" viewBox="0 0 572.4957072066876 200.99999999999997">
<rect class="rect-o-0" x="173.13" width="5.5436" height="201" rx="1%" fill="#31c48d" stroke="transparent" stroke-width="0" data-fill-palette-color="primary" data-palette-color="#31c48d"/>
<g transform="translate(193.19 .5)">
<svg width="379.31" height="200" viewBox="0 0 379.3073593073593 200">
<svg width="379.31" height="200" viewBox="0 0 379.3073593073593 200">
<svg width="379.31" height="200" viewBox="0 0 379.3073593073593 200">
<g>
<svg width="379.31" height="200" data-palette-color="#31c48d" viewBox="0.8500003814697266 -34.900001525878906 221.19998168945312 112.5">
<svg/>
<svg/>
<svg/>
<g class="undefined-text-0" fill="#31c48d" data-fill-palette-color="primary">
<path d="m3 0v-34.3h20.15v5.7h-13.75v8.65h11.75v5.7h-11.75v14.25zm38 0.6c-4.533 0-8.04-1.477-10.52-4.43-2.487-2.947-3.73-7.387-3.73-13.32s1.243-10.377 3.73-13.33c2.48-2.947 5.987-4.42 10.52-4.42s8.043 1.473 10.53 4.42c2.48 2.953 3.72 7.397 3.72 13.33s-1.24 10.373-3.72 13.32c-2.487 2.953-5.997 4.43-10.53 4.43zm0-5.5c2.5 0 4.4-0.96 5.7-2.88 1.3-1.913 1.95-4.62 1.95-8.12v-2.5c0-3.5-0.65-6.21-1.95-8.13-1.3-1.913-3.2-2.87-5.7-2.87s-4.4 0.957-5.7 2.87c-1.3 1.92-1.95 4.63-1.95 8.13v2.5c0 3.5 0.65 6.207 1.95 8.12 1.3 1.92 3.2 2.88 5.7 2.88zm31.9 5.5c-4.533 0-8.04-1.477-10.52-4.43-2.487-2.947-3.73-7.387-3.73-13.32s1.243-10.377 3.73-13.33c2.48-2.947 5.987-4.42 10.52-4.42s8.043 1.473 10.53 4.42c2.48 2.953 3.72 7.397 3.72 13.33s-1.24 10.373-3.72 13.32c-2.487 2.953-5.997 4.43-10.53 4.43zm0-5.5c2.5 0 4.4-0.96 5.7-2.88 1.3-1.913 1.95-4.62 1.95-8.12v-2.5c0-3.5-0.65-6.21-1.95-8.13-1.3-1.913-3.2-2.87-5.7-2.87s-4.4 0.957-5.7 2.87c-1.3 1.92-1.95 4.63-1.95 8.13v2.5c0 3.5 0.65 6.207 1.95 8.12 1.3 1.92 3.2 2.88 5.7 2.88zm25.3 4.9v-28.6h-8.5v-5.7h23.4v5.7h-8.5v28.6zm18.7 0v-34.3h14.75c1.8 0 3.41 0.357 4.83 1.07 1.413 0.72 2.52 1.72 3.32 3 0.8 1.287 1.2 2.763 1.2 4.43 0 1.9-0.49 3.54-1.47 4.92-0.987 1.387-2.247 2.347-3.78 2.88v0.2c1.767 0.533 3.217 1.567 4.35 3.1s1.7 3.367 1.7 5.5c0 1.867-0.457 3.49-1.37 4.87-0.92 1.387-2.147 2.453-3.68 3.2-1.533 0.753-3.233 1.13-5.1 1.13zm6.4-20.4h6.6c1.467 0 2.593-0.4 3.38-1.2 0.78-0.8 1.17-1.817 1.17-3.05 0-1.267-0.383-2.243-1.15-2.93-0.767-0.68-1.8-1.02-3.1-1.02h-6.9zm0 14.7h7.3c1.367 0 2.483-0.377 3.35-1.13 0.867-0.747 1.3-1.803 1.3-3.17 0-1.4-0.423-2.543-1.27-3.43-0.853-0.88-2.08-1.32-3.68-1.32h-7zm20.2 5.7 11.05-34.3h7.45l11.05 34.3h-6.55l-2.1-6.75h-12.65l-2.05 6.75zm10-12.45h9.15l-3.45-11.45c-0.333-1.133-0.667-2.683-1-4.65h-0.2c-0.333 2.1-0.667 3.65-1 4.65zm22.6 12.45v-34.3h6.4v28.3h14.5v6zm25.05 0v-34.3h6.4v28.3h14.5v6z" data-fill-palette-color="primary"/>
<path d="m9.35 38.5v-28.6h-8.5v-5.7h23.4v5.7h-8.5v28.6zm12.7 0 11.05-34.3h7.45l11.05 34.3h-6.55l-2.1-6.75h-12.65l-2.05 6.75zm10-12.45h9.15l-3.45-11.45c-0.333-1.133-0.667-2.683-1-4.65h-0.2c-0.333 2.1-0.667 3.65-1 4.65zm34.95 13.05c-4.4 0-7.773-1.477-10.12-4.43-2.353-2.947-3.53-7.387-3.53-13.32s1.177-10.377 3.53-13.33c2.347-2.947 5.72-4.42 10.12-4.42 3.767 0 6.81 1.117 9.13 3.35 2.313 2.233 3.47 5.567 3.47 10h-6.55c0-2.567-0.54-4.517-1.62-5.85-1.087-1.333-2.563-2-4.43-2-2.333 0-4.09 0.957-5.27 2.87-1.187 1.92-1.78 4.63-1.78 8.13v2.5c0 3.5 0.61 6.207 1.83 8.12 1.213 1.92 3.02 2.88 5.42 2.88 1.9 0 3.4-0.66 4.5-1.98 1.1-1.313 1.65-3.253 1.65-5.82h6.25c0 4.333-1.15 7.633-3.45 9.9s-5.35 3.4-9.15 3.4zm23.6-0.6v-28.6h-8.5v-5.7h23.4v5.7h-8.5v28.6zm18.2 0v-34.3h6.4v34.3zm24.25 0.6c-4.4 0-7.777-1.477-10.13-4.43-2.347-2.947-3.52-7.387-3.52-13.32s1.173-10.377 3.52-13.33c2.353-2.947 5.73-4.42 10.13-4.42 3.767 0 6.81 1.117 9.13 3.35 2.313 2.233 3.47 5.567 3.47 10h-6.55c0-2.567-0.543-4.517-1.63-5.85-1.08-1.333-2.553-2-4.42-2-2.333 0-4.09 0.957-5.27 2.87-1.187 1.92-1.78 4.63-1.78 8.13v2.5c0 3.5 0.61 6.207 1.83 8.12 1.213 1.92 3.02 2.88 5.42 2.88 1.9 0 3.4-0.66 4.5-1.98 1.1-1.313 1.65-3.253 1.65-5.82h6.25c0 4.333-1.15 7.633-3.45 9.9s-5.35 3.4-9.15 3.4zm27.6 0c-2.167 0-4.15-0.41-5.95-1.23-1.8-0.813-3.233-2.02-4.3-3.62s-1.6-3.533-1.6-5.8l0.05-1.1h6.65l-0.05 0.8c0 1.667 0.483 2.99 1.45 3.97 0.967 0.987 2.317 1.48 4.05 1.48 1.767 0 3.077-0.393 3.93-1.18 0.847-0.78 1.27-1.737 1.27-2.87s-0.3-2.06-0.9-2.78c-0.6-0.713-1.34-1.27-2.22-1.67-0.887-0.4-2.13-0.867-3.73-1.4-2.1-0.667-3.8-1.333-5.1-2s-2.407-1.683-3.32-3.05c-0.92-1.367-1.38-3.183-1.38-5.45 0-2.067 0.517-3.827 1.55-5.28 1.033-1.447 2.417-2.53 4.15-3.25 1.733-0.713 3.65-1.07 5.75-1.07 3.267 0 5.943 0.84 8.03 2.52 2.08 1.687 3.12 4.213 3.12 7.58v0.6h-6.55v-0.45c0-1.467-0.417-2.627-1.25-3.48-0.833-0.847-1.967-1.27-3.4-1.27-1.5 0-2.673 0.34-3.52 1.02-0.853 0.687-1.28 1.563-1.28 2.63 0 0.933 0.283 1.7 0.85 2.3s1.277 1.083 2.13 1.45c0.847 0.367 2.02 0.783 3.52 1.25 2.167 0.7 3.917 1.373 5.25 2.02 1.333 0.653 2.483 1.663 3.45 3.03s1.45 3.167 1.45 5.4c0 3.767-1.073 6.527-3.22 8.28-2.153 1.747-5.113 2.62-8.88 2.62z" data-fill-palette-color="primary"/>
<path d="m3 77v-34.3h6.4v13.9h10.8v-13.9h6.4v34.3h-6.4v-14.7h-10.8v14.7zm41.4 0.6c-3.733 0-6.623-0.977-8.67-2.93-2.053-1.947-3.08-4.753-3.08-8.42v-23.55h6.4v23.35c0 1.967 0.467 3.467 1.4 4.5s2.25 1.55 3.95 1.55 3.027-0.517 3.98-1.55c0.947-1.033 1.42-2.533 1.42-4.5v-23.35h6.4v23.55c0 3.667-1.033 6.473-3.1 8.42-2.067 1.953-4.967 2.93-8.7 2.93zm17.8-0.6v-34.3h14.75c1.8 0 3.41 0.357 4.83 1.07 1.413 0.72 2.52 1.72 3.32 3 0.8 1.287 1.2 2.763 1.2 4.43 0 1.9-0.49 3.54-1.47 4.92-0.987 1.387-2.247 2.347-3.78 2.88v0.2c1.767 0.533 3.217 1.567 4.35 3.1s1.7 3.367 1.7 5.5c0 1.867-0.457 3.49-1.37 4.87-0.92 1.387-2.147 2.453-3.68 3.2-1.533 0.753-3.233 1.13-5.1 1.13zm6.4-20.4h6.6c1.467 0 2.593-0.4 3.38-1.2 0.78-0.8 1.17-1.817 1.17-3.05 0-1.267-0.383-2.243-1.15-2.93-0.767-0.68-1.8-1.02-3.1-1.02h-6.9zm0 14.7h7.3c1.367 0 2.483-0.377 3.35-1.13 0.867-0.747 1.3-1.803 1.3-3.17 0-1.4-0.423-2.543-1.27-3.43-0.853-0.88-2.08-1.32-3.68-1.32h-7z" data-fill-palette-color="primary"/>
</g>
</svg>
</g>
</svg>
</svg>
</svg>
</g>
<g transform="translate(0 .5)">
<svg width="158.62" height="200" viewBox="0 0 158.6206896551724 200">
<svg class="icon-icon-0" width="158.62" height="200" enable-background="new 0 0 64 64" data-fill-palette-color="accent" version="1.1" viewBox="9 3.006999969482422 46 58" xml:space="preserve" xmlns="http://www.w3.org/2000/svg" xmlns:xlink="http://www.w3.org/1999/xlink"><g fill="#096a2e" data-fill-palette-color="accent"><circle cx="32" cy="50.007" r="3" data-fill-palette-color="accent"/><circle cx="50" cy="52.007" r="1" data-fill-palette-color="accent"/><path d="m31 54.906v2.101h2v-2.101c-0.323 0.066-0.658 0.101-1 0.101s-0.677-0.035-1-0.101z" data-fill-palette-color="accent"/><path d="m36 43.007h-8c-3.859 0-7 3.141-7 7v9h4v-2h4v-3.026c-1.207-0.914-2-2.348-2-3.974 0-2.757 2.243-5 5-5s5 2.243 5 5c0 1.627-0.793 3.061-2 3.974v3.026h4v2h4v-9c0-3.859-3.141-7-7-7z" data-fill-palette-color="accent"/><rect x="27" y="59.007" width="10" height="2" data-fill-palette-color="accent"/><circle cx="32" cy="14.007" r="3" data-fill-palette-color="accent"/><rect x="27" y="3.007" width="10" height="2" data-fill-palette-color="accent"/><path d="m33 9.108v-2.101h-2v2.101c0.323-0.066 0.658-0.101 1-0.101s0.677 0.035 1 0.101z" data-fill-palette-color="accent"/><path d="m28 21.007h8c3.859 0 7-3.141 7-7v-9h-4v2h-4v3.026c1.207 0.914 2 2.348 2 3.974 0 2.757-2.243 5-5 5s-5-2.243-5-5c0-1.627 0.793-3.061 2-3.974v-3.026h-4v-2h-4v9c0 3.86 3.141 7 7 7z" data-fill-palette-color="accent"/><circle cx="14" cy="15.007" r="1" data-fill-palette-color="accent"/><circle cx="49" cy="25.007" r="2" data-fill-palette-color="accent"/><path d="m32 37.007c2.414 0 4.434-1.721 4.899-4h-9.798c0.465 2.28 2.485 4 4.899 4z" data-fill-palette-color="accent"/><path d="m19.685 33.007c1.126 2.361 3.53 4 6.315 4h1.111c-1.074-1.051-1.807-2.444-2.031-4h-5.395z" data-fill-palette-color="accent"/><path d="m45 5.007v9c0 4.963-4.037 9-9 9h-8c-4.963 0-9-4.037-9-9v-9h-10v26h8.059c-0.037-0.329-0.059-0.662-0.059-1v-4.586l-2.293 2.293-1.414-1.414 4.707-4.707 4.707 4.707-1.414 1.414-2.293-2.293v4.586c0 0.34 0.033 0.672 0.08 1h6c0.488-3.386 3.401-6 6.92-6s6.432 2.614 6.92 6h16.08v-26h-10zm-31 13c-1.654 0-3-1.346-3-3s1.346-3 3-3 3 1.346 3 3-1.346 3-3 3zm35 11c-2.206 0-4-1.794-4-4s1.794-4 4-4 4 1.794 4 4-1.794 4-4 4z" data-fill-palette-color="accent"/><path d="m32 27.007c-2.414 0-4.434 1.721-4.899 4h9.798c-0.465-2.279-2.485-4-4.899-4z" data-fill-palette-color="accent"/><path d="m36.889 37.007h6.111v2h-17c-3.91 0-7.236-2.51-8.475-6h-8.525v26h10v-9c0-4.963 4.037-9 9-9h8c4.963 0 9 4.037 9 9v9h10v-26h-16.08c-0.224 1.557-0.956 2.95-2.031 4zm-19.182 5.293-1.414 1.414-2.293-2.293-2.293 2.293-1.414-1.414 2.293-2.293-2.293-2.293 1.414-1.414 2.293 2.293 2.293-2.293 1.414 1.414-2.293 2.293 2.293 2.293zm32.293 12.707c-1.654 0-3-1.346-3-3s1.346-3 3-3 3 1.346 3 3-1.346 3-3 3zm-3.707-19.293 1.414-1.414 2.293 2.293 2.293-2.293 1.414 1.414-2.293 2.293 2.293 2.293-1.414 1.414-2.293-2.293-2.293 2.293-1.414-1.414 2.293-2.293-2.293-2.293z" data-fill-palette-color="accent"/></g></svg>
</svg>
</g>
</svg>
</svg>
<rect width="395.52" height="138.86" fill="none" visibility="hidden"/>
</g>
</svg>
</g>
</svg>
