<svg xmlns="http://www.w3.org/2000/svg" version="1.1" xmlns:xlink="http://www.w3.org/1999/xlink" xmlns:svgjs="http://svgjs.dev/svgjs" width="1000" height="1000" viewBox="0 0 1000 1000"><rect width="1000" height="1000" fill="#ffffff"></rect><g transform="matrix(0.7,0,0,0.7,149.57577634873633,377.03053645941156)"><svg viewBox="0 0 396 139" data-background-color="#ffffff" preserveAspectRatio="xMidYMid meet" height="351" width="1000" xmlns="http://www.w3.org/2000/svg" xmlns:xlink="http://www.w3.org/1999/xlink"><defs></defs><g id="tight-bounds" transform="matrix(1,0,0,1,0.23998937985771818,0.06758417640122616)"><svg viewBox="0 0 395.51999999999987 138.86483164719755" height="138.86483164719755" width="395.51999999999987"><g><svg viewBox="0 0 572.4957072066876 200.99999999999997" height="138.86483164719755" width="395.51999999999987"><g><rect width="5.543595906493507" height="200.99999999999997" x="173.13272082400357" y="0" fill="#31c48d" opacity="1" stroke-width="0" stroke="transparent" fill-opacity="1" class="rect-o-0" data-fill-palette-color="primary" rx="1%" id="o-0" data-palette-color="#31c48d"></rect></g><g transform="matrix(1,0,0,1,193.18834789932822,0.4999999999999858)"><svg viewBox="0 0 379.3073593073593 200" height="200" width="379.3073593073593"><g><svg viewBox="0 0 379.3073593073593 200" height="200" width="379.3073593073593"><g><svg viewBox="0 0 379.3073593073593 200" height="200" width="379.3073593073593"><g transform="matrix(1,0,0,1,0,0)"><svg width="379.3073593073593" viewBox="0.8500003814697266 -34.900001525878906 221.19998168945312 112.5" height="200" data-palette-color="#31c48d"><svg></svg><svg></svg><svg></svg><g class="undefined-text-0" data-fill-palette-color="primary" id="text-0"><path d="M3 0v-34.3h20.15v5.7h-13.75v8.65h11.75v5.7h-11.75v14.25zM41 0.6c-4.533 0-8.04-1.477-10.52-4.43-2.487-2.947-3.73-7.387-3.73-13.32v0c0-5.933 1.243-10.377 3.73-13.33 2.48-2.947 5.987-4.42 10.52-4.42v0c4.533 0 8.043 1.473 10.53 4.42 2.48 2.953 3.72 7.397 3.72 13.33v0c0 5.933-1.24 10.373-3.72 13.32-2.487 2.953-5.997 4.43-10.53 4.43zM41-4.9c2.5 0 4.4-0.96 5.7-2.88 1.3-1.913 1.95-4.62 1.95-8.12v0-2.5c0-3.5-0.65-6.21-1.95-8.13-1.3-1.913-3.2-2.87-5.7-2.87v0c-2.5 0-4.4 0.957-5.7 2.87-1.3 1.92-1.95 4.63-1.95 8.13v0 2.5c0 3.5 0.65 6.207 1.95 8.12 1.3 1.92 3.2 2.88 5.7 2.88zM72.9 0.6c-4.533 0-8.04-1.477-10.52-4.43-2.487-2.947-3.73-7.387-3.73-13.32v0c0-5.933 1.243-10.377 3.73-13.33 2.48-2.947 5.987-4.42 10.52-4.42v0c4.533 0 8.043 1.473 10.53 4.42 2.48 2.953 3.72 7.397 3.72 13.33v0c0 5.933-1.24 10.373-3.72 13.32-2.487 2.953-5.997 4.43-10.53 4.43zM72.9-4.9c2.5 0 4.4-0.96 5.7-2.88 1.3-1.913 1.95-4.62 1.95-8.12v0-2.5c0-3.5-0.65-6.21-1.95-8.13-1.3-1.913-3.2-2.87-5.7-2.87v0c-2.5 0-4.4 0.957-5.7 2.87-1.3 1.92-1.95 4.63-1.95 8.13v0 2.5c0 3.5 0.65 6.207 1.95 8.12 1.3 1.92 3.2 2.88 5.7 2.88zM98.2 0v-28.6h-8.5v-5.7h23.4v5.7h-8.5v28.6zM116.9 0v-34.3h14.75c1.8 0 3.41 0.357 4.83 1.07 1.413 0.72 2.52 1.72 3.32 3 0.8 1.287 1.2 2.763 1.2 4.43v0c0 1.9-0.49 3.54-1.47 4.92-0.987 1.387-2.247 2.347-3.78 2.88v0 0.2c1.767 0.533 3.217 1.567 4.35 3.1 1.133 1.533 1.7 3.367 1.7 5.5v0c0 1.867-0.457 3.49-1.37 4.87-0.92 1.387-2.147 2.453-3.68 3.2-1.533 0.753-3.233 1.13-5.1 1.13v0zM123.3-20.4h6.6c1.467 0 2.593-0.4 3.38-1.2 0.78-0.8 1.17-1.817 1.17-3.05v0c0-1.267-0.383-2.243-1.15-2.93-0.767-0.68-1.8-1.02-3.1-1.02v0h-6.9zM123.3-5.7h7.3c1.367 0 2.483-0.377 3.35-1.13 0.867-0.747 1.3-1.803 1.3-3.17v0c0-1.4-0.423-2.543-1.27-3.43-0.853-0.88-2.08-1.32-3.68-1.32v0h-7zM143.5 0l11.05-34.3h7.45l11.05 34.3h-6.55l-2.1-6.75h-12.65l-2.05 6.75zM153.5-12.45h9.15l-3.45-11.45c-0.333-1.133-0.667-2.683-1-4.65v0h-0.2c-0.333 2.1-0.667 3.65-1 4.65v0zM176.1 0v-34.3h6.4v28.3h14.5v6zM201.15 0v-34.3h6.4v28.3h14.5v6z" data-fill-palette-color="primary" fill="#31c48d" opacity="1"></path><path d="M9.35 38.5v-28.6h-8.5v-5.7h23.4v5.7h-8.5v28.6zM22.05 38.5l11.05-34.3h7.45l11.05 34.3h-6.55l-2.1-6.75h-12.65l-2.05 6.75zM32.05 26.05h9.15l-3.45-11.45c-0.333-1.133-0.667-2.683-1-4.65v0h-0.2c-0.333 2.1-0.667 3.65-1 4.65v0zM67 39.1c-4.4 0-7.773-1.477-10.12-4.43-2.353-2.947-3.53-7.387-3.53-13.32v0c0-5.933 1.177-10.377 3.53-13.33 2.347-2.947 5.72-4.42 10.12-4.42v0c3.767 0 6.81 1.117 9.13 3.35 2.313 2.233 3.47 5.567 3.47 10v0h-6.55c0-2.567-0.54-4.517-1.62-5.85-1.087-1.333-2.563-2-4.43-2v0c-2.333 0-4.09 0.957-5.27 2.87-1.187 1.92-1.78 4.63-1.78 8.13v0 2.5c0 3.5 0.61 6.207 1.83 8.12 1.213 1.92 3.02 2.88 5.42 2.88v0c1.9 0 3.4-0.66 4.5-1.98 1.1-1.313 1.65-3.253 1.65-5.82v0h6.25c0 4.333-1.15 7.633-3.45 9.9-2.3 2.267-5.35 3.4-9.15 3.4zM90.6 38.5v-28.6h-8.5v-5.7h23.4v5.7h-8.5v28.6zM108.8 38.5v-34.3h6.4v34.3zM133.05 39.1c-4.4 0-7.777-1.477-10.13-4.43-2.347-2.947-3.52-7.387-3.52-13.32v0c0-5.933 1.173-10.377 3.52-13.33 2.353-2.947 5.73-4.42 10.13-4.42v0c3.767 0 6.81 1.117 9.13 3.35 2.313 2.233 3.47 5.567 3.47 10v0h-6.55c0-2.567-0.543-4.517-1.63-5.85-1.08-1.333-2.553-2-4.42-2v0c-2.333 0-4.09 0.957-5.27 2.87-1.187 1.92-1.78 4.63-1.78 8.13v0 2.5c0 3.5 0.61 6.207 1.83 8.12 1.213 1.92 3.02 2.88 5.42 2.88v0c1.9 0 3.4-0.66 4.5-1.98 1.1-1.313 1.65-3.253 1.65-5.82v0h6.25c0 4.333-1.15 7.633-3.45 9.9-2.3 2.267-5.35 3.4-9.15 3.4zM160.65 39.1c-2.167 0-4.15-0.41-5.95-1.23-1.8-0.813-3.233-2.02-4.3-3.62-1.067-1.6-1.6-3.533-1.6-5.8v0l0.05-1.1h6.65l-0.05 0.8c0 1.667 0.483 2.99 1.45 3.97 0.967 0.987 2.317 1.48 4.05 1.48v0c1.767 0 3.077-0.393 3.93-1.18 0.847-0.78 1.27-1.737 1.27-2.87v0c0-1.133-0.3-2.06-0.9-2.78-0.6-0.713-1.34-1.27-2.22-1.67-0.887-0.4-2.13-0.867-3.73-1.4v0c-2.1-0.667-3.8-1.333-5.1-2-1.3-0.667-2.407-1.683-3.32-3.05-0.92-1.367-1.38-3.183-1.38-5.45v0c0-2.067 0.517-3.827 1.55-5.28 1.033-1.447 2.417-2.53 4.15-3.25 1.733-0.713 3.65-1.07 5.75-1.07v0c3.267 0 5.943 0.84 8.03 2.52 2.08 1.687 3.12 4.213 3.12 7.58v0 0.6h-6.55v-0.45c0-1.467-0.417-2.627-1.25-3.48-0.833-0.847-1.967-1.27-3.4-1.27v0c-1.5 0-2.673 0.34-3.52 1.02-0.853 0.687-1.28 1.563-1.28 2.63v0c0 0.933 0.283 1.7 0.85 2.3 0.567 0.6 1.277 1.083 2.13 1.45 0.847 0.367 2.02 0.783 3.52 1.25v0c2.167 0.7 3.917 1.373 5.25 2.02 1.333 0.653 2.483 1.663 3.45 3.03 0.967 1.367 1.45 3.167 1.45 5.4v0c0 3.767-1.073 6.527-3.22 8.28-2.153 1.747-5.113 2.62-8.88 2.62z" data-fill-palette-color="primary" fill="#31c48d" opacity="1"></path><path d="M3 77v-34.3h6.4v13.9h10.8v-13.9h6.4v34.3h-6.4v-14.7h-10.8v14.7zM44.4 77.6c-3.733 0-6.623-0.977-8.67-2.93-2.053-1.947-3.08-4.753-3.08-8.42v0-23.55h6.4v23.35c0 1.967 0.467 3.467 1.4 4.5 0.933 1.033 2.25 1.55 3.95 1.55v0c1.7 0 3.027-0.517 3.98-1.55 0.947-1.033 1.42-2.533 1.42-4.5v0-23.35h6.4v23.55c0 3.667-1.033 6.473-3.1 8.42-2.067 1.953-4.967 2.93-8.7 2.93zM62.2 77v-34.3h14.75c1.8 0 3.41 0.357 4.83 1.07 1.413 0.72 2.52 1.72 3.32 3 0.8 1.287 1.2 2.763 1.2 4.43v0c0 1.9-0.49 3.54-1.47 4.92-0.987 1.387-2.247 2.347-3.78 2.88v0 0.2c1.767 0.533 3.217 1.567 4.35 3.1 1.133 1.533 1.7 3.367 1.7 5.5v0c0 1.867-0.457 3.49-1.37 4.87-0.92 1.387-2.147 2.453-3.68 3.2-1.533 0.753-3.233 1.13-5.1 1.13v0zM68.6 56.6h6.6c1.467 0 2.593-0.4 3.38-1.2 0.78-0.8 1.17-1.817 1.17-3.05v0c0-1.267-0.383-2.243-1.15-2.93-0.767-0.68-1.8-1.02-3.1-1.02v0h-6.9zM68.6 71.3h7.3c1.367 0 2.483-0.377 3.35-1.13 0.867-0.747 1.3-1.803 1.3-3.17v0c0-1.4-0.423-2.543-1.27-3.43-0.853-0.88-2.08-1.32-3.68-1.32v0h-7z" data-fill-palette-color="primary" fill="#31c48d" opacity="1"></path></g></svg></g></svg></g></svg></g></svg></g><g transform="matrix(1,0,0,1,0,0.4999999999999858)"><svg viewBox="0 0 158.6206896551724 200" height="200" width="158.6206896551724"><g><svg xmlns="http://www.w3.org/2000/svg" xmlns:xlink="http://www.w3.org/1999/xlink" version="1.1" x="0" y="0" viewBox="9 3.006999969482422 46 58" style="enable-background:new 0 0 64 64;" xml:space="preserve" height="200" width="158.6206896551724" class="icon-icon-0" data-fill-palette-color="accent" id="icon-0"><g fill="#096a2e" data-fill-palette-color="accent"><circle cx="32" cy="50.007" r="3.0" fill="#096a2e" data-fill-palette-color="accent"></circle><circle cx="50" cy="52.007" r="1.0" fill="#096a2e" data-fill-palette-color="accent"></circle><path d="M31 54.906v2.101h2v-2.101c-0.323 0.066-0.658 0.101-1 0.101S31.323 54.972 31 54.906z" fill="#096a2e" data-fill-palette-color="accent"></path><path d="M36 43.007h-8c-3.859 0-7 3.141-7 7v9h4v-2h4v-3.026c-1.207-0.914-2-2.348-2-3.974 0-2.757 2.243-5 5-5s5 2.243 5 5c0 1.627-0.793 3.061-2 3.974v3.026h4v2h4v-9C43 46.148 39.859 43.007 36 43.007z" fill="#096a2e" data-fill-palette-color="accent"></path><rect x="27" y="59.007" width="10" height="2" fill="#096a2e" data-fill-palette-color="accent"></rect><circle cx="32" cy="14.007" r="3.0" fill="#096a2e" data-fill-palette-color="accent"></circle><rect x="27" y="3.007" width="10" height="2" fill="#096a2e" data-fill-palette-color="accent"></rect><path d="M33 9.108V7.007h-2v2.101c0.323-0.066 0.658-0.101 1-0.101S32.677 9.042 33 9.108z" fill="#096a2e" data-fill-palette-color="accent"></path><path d="M28 21.007h8c3.859 0 7-3.141 7-7v-9h-4v2h-4v3.026c1.207 0.914 2 2.348 2 3.974 0 2.757-2.243 5-5 5s-5-2.243-5-5c0-1.627 0.793-3.061 2-3.974V7.007h-4v-2h-4v9C21 17.867 24.141 21.007 28 21.007z" fill="#096a2e" data-fill-palette-color="accent"></path><circle cx="14" cy="15.007" r="1.0" fill="#096a2e" data-fill-palette-color="accent"></circle><circle cx="49" cy="25.007" r="2.0" fill="#096a2e" data-fill-palette-color="accent"></circle><path d="M32 37.007c2.414 0 4.434-1.721 4.899-4h-9.798C27.566 35.287 29.586 37.007 32 37.007z" fill="#096a2e" data-fill-palette-color="accent"></path><path d="M19.685 33.007c1.126 2.361 3.53 4 6.315 4h1.111c-1.074-1.051-1.807-2.444-2.031-4H19.685z" fill="#096a2e" data-fill-palette-color="accent"></path><path d="M45 5.007v9c0 4.963-4.037 9-9 9h-8c-4.963 0-9-4.037-9-9v-9H9v26h8.059c-0.037-0.329-0.059-0.662-0.059-1v-4.586l-2.293 2.293L13.293 26.3 18 21.593l4.707 4.707-1.414 1.414L19 25.421v4.586c0 0.34 0.033 0.672 0.08 1h6c0.488-3.386 3.401-6 6.92-6s6.432 2.614 6.92 6H55v-26H45zM14 18.007c-1.654 0-3-1.346-3-3s1.346-3 3-3 3 1.346 3 3S15.654 18.007 14 18.007zM49 29.007c-2.206 0-4-1.794-4-4s1.794-4 4-4 4 1.794 4 4S51.206 29.007 49 29.007z" fill="#096a2e" data-fill-palette-color="accent"></path><path d="M32 27.007c-2.414 0-4.434 1.721-4.899 4h9.798C36.434 28.728 34.414 27.007 32 27.007z" fill="#096a2e" data-fill-palette-color="accent"></path><path d="M36.889 37.007H43v2H26c-3.91 0-7.236-2.51-8.475-6H9v26h10v-9c0-4.963 4.037-9 9-9h8c4.963 0 9 4.037 9 9v9h10v-26H38.92C38.696 34.564 37.964 35.957 36.889 37.007zM17.707 42.3l-1.414 1.414L14 41.421l-2.293 2.293L10.293 42.3l2.293-2.293-2.293-2.293 1.414-1.414L14 38.593l2.293-2.293 1.414 1.414-2.293 2.293L17.707 42.3zM50 55.007c-1.654 0-3-1.346-3-3s1.346-3 3-3 3 1.346 3 3S51.654 55.007 50 55.007zM46.293 35.714l1.414-1.414L50 36.593l2.293-2.293 1.414 1.414-2.293 2.293 2.293 2.293-1.414 1.414L50 39.421l-2.293 2.293L46.293 40.3l2.293-2.293L46.293 35.714z" fill="#096a2e" data-fill-palette-color="accent"></path></g></svg></g></svg></g></svg></g></svg><rect width="395.51999999999987" height="138.86483164719755" fill="none" stroke="none" visibility="hidden"></rect></g></svg></g></svg>